<svg xmlns="http://www.w3.org/2000/svg" xmlns:xlink="http://www.w3.org/1999/xlink" width="200" height="200" class="icon" p-id="7205" t="1618217742324" version="1.1" viewBox="0 0 1024 1024"><defs><style type="text/css"/></defs><path d="M512 64C264.96 64 64 264.96 64 512s200.96 448 448 448 448-200.96 448-448S759.04 64 512 64z m0 831.712c-211.584 0-383.712-172.16-383.712-383.712 0-211.584 172.128-383.712 383.712-383.712 211.552 0 383.712 172.128 383.712 383.712 0 211.552-172.16 383.712-383.712 383.712z" p-id="7206"/><path d="M671.968 512H512V288.064c0-17.76-14.24-32.128-32-32.128s-32 14.4-32 32.128V544c0 17.76 14.272 32 32 32h191.968c17.76 0 32.128-14.24 32.128-32s-14.368-32-32.128-32z" p-id="7207"/></svg>