<svg xmlns="http://www.w3.org/2000/svg" xmlns:xlink="http://www.w3.org/1999/xlink" width="200" height="200" class="icon" p-id="859" t="1619335647805" version="1.1" viewBox="0 0 1024 1024"><defs><style type="text/css"/></defs><path d="M975.920762 0H72.46019C45.884952 0 24.380952 24.576 24.380952 54.979048v889.660952C24.380952 975.043048 45.884952 999.619048 72.46019 999.619048h903.460572C1002.496 999.619048 1024 975.043048 1024 944.64V54.979048C1024 24.576 1002.496 0 975.920762 0zM338.066286 925.988571H89.965714v-194.243047h248.100572v194.218666z m0-258.925714H89.965714v-194.243047h248.100572v194.218666z m0-258.925714H89.965714V213.991619h248.100572v194.096762z m310.174476 517.851428H400.14019v-194.243047h248.100572v194.218666z m0-258.925714H400.14019v-194.243047h248.100572v194.218666z m0-258.925714H400.14019V213.991619h248.100572v194.096762zM958.415238 925.988571H710.314667v-194.243047H958.415238v194.218666z m0-258.925714H710.314667v-194.243047H958.415238v194.218666z m0-258.925714H710.314667V213.991619H958.415238v194.096762z" p-id="860"/></svg>